<svg width="18" height="11" viewBox="0 0 18 11" fill="none" xmlns="http://www.w3.org/2000/svg">
<path d="M1.04981 7.94995L7.94981 1.04995C8.0998 0.899951 8.26231 0.793951 8.43731 0.731951C8.6123 0.669951 8.7998 0.638451 8.99981 0.637451C9.19981 0.637451 9.3873 0.668951 9.5623 0.731951C9.73731 0.794951 9.8998 0.900951 10.0498 1.04995L16.9498 7.94995C17.2248 8.22495 17.3623 8.57495 17.3623 8.99995C17.3623 9.42495 17.2248 9.77495 16.9498 10.0499C16.6748 10.325 16.3248 10.4625 15.8998 10.4625C15.4748 10.4625 15.1248 10.325 14.8498 10.0499L8.99981 4.19995L3.14981 10.0499C2.87481 10.325 2.5248 10.4625 2.0998 10.4625C1.6748 10.4625 1.32481 10.325 1.04981 10.0499C0.774807 9.77495 0.637304 9.42495 0.637304 8.99995C0.637304 8.57495 0.774807 8.22495 1.04981 7.94995Z" fill="white"/>
</svg>
