<svg width="18" height="11" viewBox="0 0 18 11" fill="none" xmlns="http://www.w3.org/2000/svg">
<path d="M16.95 3.04999L10.05 9.94999C9.9 10.1 9.7375 10.206 9.5625 10.268C9.3875 10.33 9.2 10.3615 9 10.3625C8.8 10.3625 8.6125 10.331 8.4375 10.268C8.2625 10.205 8.1 10.099 7.95 9.94999L1.05 3.04999C0.775 2.77499 0.637501 2.42499 0.637501 1.99999C0.637501 1.57499 0.775 1.22499 1.05 0.949989C1.325 0.674989 1.675 0.537488 2.1 0.537488C2.525 0.537488 2.875 0.674989 3.15 0.949989L9 6.79999L14.85 0.949989C15.125 0.674989 15.475 0.537488 15.9 0.537488C16.325 0.537488 16.675 0.674989 16.95 0.949989C17.225 1.22499 17.3625 1.57499 17.3625 1.99999C17.3625 2.42499 17.225 2.77499 16.95 3.04999Z" fill="white"/>
</svg>
