<svg width="174" height="152" viewBox="0 0 174 152" fill="none" xmlns="http://www.w3.org/2000/svg">
<g filter="url(#filter0_di_0_6279)">
<rect x="78" y="52" width="40" height="40" fill="url(#paint0_linear_0_6279)" shape-rendering="crispEdges"/>
<rect x="78.5" y="52.5" width="39" height="39" stroke="#FF275B" shape-rendering="crispEdges"/>
</g>
<path d="M3.486 78.168C1.918 78.168 0.812 77.118 0.812 75.228V70.972C0.812 69.082 1.89 68.032 3.43 68.032C5.026 68.032 6.048 69.04 6.146 70.86H5.306C5.208 69.474 4.536 68.816 3.43 68.816C2.38 68.816 1.652 69.516 1.652 70.972V75.228C1.652 76.684 2.408 77.384 3.486 77.384C4.606 77.384 5.25 76.698 5.39 75.34H6.23C6.09 77.132 5.096 78.168 3.486 78.168ZM8.18256 77.174H11.7666V78H7.31456V68.2H8.18256V77.174ZM15.019 78.182C13.255 78.182 12.205 76.936 12.205 74.962V71.238C12.205 69.264 13.255 68.018 15.019 68.018C16.783 68.018 17.833 69.264 17.833 71.238V74.962C17.833 76.936 16.783 78.182 15.019 78.182ZM15.019 77.342C16.293 77.342 16.951 76.474 16.951 74.962V71.238C16.951 69.726 16.293 68.858 15.019 68.858C13.745 68.858 13.087 69.726 13.087 71.238V74.962C13.087 76.474 13.745 77.342 15.019 77.342ZM21.3271 78.182C19.7031 78.182 18.6391 77.104 18.5971 75.48H19.4651C19.5071 76.698 20.2071 77.342 21.2991 77.342C22.4891 77.342 23.0771 76.6 23.0771 75.536C23.0771 73.268 18.7371 73.254 18.7371 70.412C18.7371 69.068 19.7591 68.018 21.2711 68.018C22.8111 68.018 23.7631 69.11 23.8331 70.65H22.9651C22.9091 69.418 22.2371 68.858 21.2991 68.858C20.2351 68.858 19.6191 69.474 19.6191 70.412C19.6191 72.68 23.9591 72.596 23.9591 75.536C23.9591 76.866 23.0491 78.182 21.3271 78.182ZM25.7985 77.202H29.6485V78H24.9305V68.2H29.4945V68.998H25.7985V72.624H29.2565V73.422H25.7985V77.202ZM39.5551 68.2H40.4791V78H39.6111V72.82C39.6111 71.784 39.6391 70.916 39.6951 70.048L39.6391 70.034C39.3871 70.734 38.9951 71.672 38.6311 72.61L37.4271 75.69H36.5591L35.3551 72.61C34.9911 71.672 34.5991 70.734 34.3471 70.034L34.2911 70.048C34.3471 70.916 34.3751 71.784 34.3751 72.82V78H33.5071V68.2H34.4311L36.1811 72.428C36.4331 73.058 36.7831 74.066 36.9651 74.612H37.0211C37.2031 74.066 37.5531 73.058 37.8051 72.428L39.5551 68.2ZM43.018 77.202H46.868V78H42.15V68.2H46.714V68.998H43.018V72.624H46.476V73.422H43.018V77.202ZM52.5534 68.2H53.4214V78H52.5254L49.8514 72.246C49.5434 71.588 49.0394 70.356 48.8574 69.866L48.8154 69.88C48.8434 70.622 48.8854 71.742 48.8854 72.512V78H48.0174V68.2H48.9134L51.5594 73.912C51.8954 74.612 52.3994 75.774 52.6234 76.334L52.6654 76.32C52.6234 75.606 52.5534 74.332 52.5534 73.492V68.2ZM57.6079 78.126C56.0399 78.126 54.9339 77.09 54.9339 75.102V68.2H55.8019V75.102C55.8019 76.614 56.5439 77.286 57.6079 77.286C58.6719 77.286 59.4139 76.614 59.4139 75.102V68.2H60.2819V75.102C60.2819 77.09 59.1759 78.126 57.6079 78.126Z" fill="white"/>
<path d="M91.8125 65.8125C92.0469 65.5781 92.3648 65.4465 92.6963 65.4465C93.0277 65.4465 93.3456 65.5781 93.58 65.8125L98 70.2325L102.42 65.8125C102.656 65.5848 102.972 65.4588 103.299 65.4616C103.627 65.4645 103.941 65.596 104.172 65.8277C104.404 66.0595 104.536 66.373 104.538 66.7007C104.541 67.0285 104.415 67.3442 104.188 67.58L99.7675 72L104.188 76.42C104.415 76.6557 104.541 76.9715 104.538 77.2992C104.536 77.627 104.404 77.9405 104.172 78.1723C103.941 78.404 103.627 78.5355 103.299 78.5383C102.972 78.5412 102.656 78.4152 102.42 78.1875L98 73.7675L93.58 78.1875C93.3443 78.4152 93.0285 78.5412 92.7008 78.5383C92.373 78.5355 92.0595 78.404 91.8277 78.1723C91.596 77.9405 91.4645 77.627 91.4617 77.2992C91.4588 76.9715 91.5848 76.6557 91.8125 76.42L96.2325 72L91.8125 67.58C91.5782 67.3456 91.4465 67.0277 91.4465 66.6962C91.4465 66.3648 91.5782 66.0469 91.8125 65.8125Z" fill="white"/>
<defs>
<filter id="filter0_di_0_6279" x="22" y="0" width="152" height="152" filterUnits="userSpaceOnUse" color-interpolation-filters="sRGB">
<feFlood flood-opacity="0" result="BackgroundImageFix"/>
<feColorMatrix in="SourceAlpha" type="matrix" values="0 0 0 0 0 0 0 0 0 0 0 0 0 0 0 0 0 0 127 0" result="hardAlpha"/>
<feOffset dy="4"/>
<feGaussianBlur stdDeviation="28"/>
<feComposite in2="hardAlpha" operator="out"/>
<feColorMatrix type="matrix" values="0 0 0 0 0.713726 0 0 0 0 0.0705882 0 0 0 0 0.227451 0 0 0 0.25 0"/>
<feBlend mode="normal" in2="BackgroundImageFix" result="effect1_dropShadow_0_6279"/>
<feBlend mode="normal" in="SourceGraphic" in2="effect1_dropShadow_0_6279" result="shape"/>
<feColorMatrix in="SourceAlpha" type="matrix" values="0 0 0 0 0 0 0 0 0 0 0 0 0 0 0 0 0 0 127 0" result="hardAlpha"/>
<feOffset/>
<feGaussianBlur stdDeviation="18.5"/>
<feComposite in2="hardAlpha" operator="arithmetic" k2="-1" k3="1"/>
<feColorMatrix type="matrix" values="0 0 0 0 1 0 0 0 0 0.152941 0 0 0 0 0.356863 0 0 0 1 0"/>
<feBlend mode="normal" in2="shape" result="effect2_innerShadow_0_6279"/>
</filter>
<linearGradient id="paint0_linear_0_6279" x1="98" y1="92" x2="98" y2="52" gradientUnits="userSpaceOnUse">
<stop stop-color="#FF275B"/>
<stop offset="1" stop-color="#B6123A" stop-opacity="0"/>
</linearGradient>
</defs>
</svg>
