<svg width="394" height="342" viewBox="0 0 394 342" fill="none" xmlns="http://www.w3.org/2000/svg">
<path d="M147.338 160.539L197.5 131.577L247.662 160.539V218.461L197.5 247.423L147.338 218.461V160.539Z" fill="url(#paint0_linear_15_6083)" fill-opacity="0.15" stroke="url(#paint1_linear_15_6083)"/>
<g filter="url(#filter0_d_15_6083)">
<path d="M197 55L266.282 95V175L197 215L127.718 175V95L197 55Z" fill="url(#paint2_radial_15_6083)" fill-opacity="0.3"/>
<path d="M128.218 95.2887L197 55.5774L265.782 95.2887V174.711L197 214.423L128.218 174.711V95.2887Z" stroke="#8A42FF"/>
</g>
<path d="M197 72L251.56 103.5V166.5L197 198L142.44 166.5V103.5L197 72Z" fill="url(#paint3_radial_15_6083)" fill-opacity="0.7"/>
<defs>
<filter id="filter0_d_15_6083" x="0.717773" y="-72" width="392.564" height="414" filterUnits="userSpaceOnUse" color-interpolation-filters="sRGB">
<feFlood flood-opacity="0" result="BackgroundImageFix"/>
<feColorMatrix in="SourceAlpha" type="matrix" values="0 0 0 0 0 0 0 0 0 0 0 0 0 0 0 0 0 0 127 0" result="hardAlpha"/>
<feOffset/>
<feGaussianBlur stdDeviation="63.5"/>
<feColorMatrix type="matrix" values="0 0 0 0 0.541176 0 0 0 0 0.258824 0 0 0 0 1 0 0 0 0.46 0"/>
<feBlend mode="normal" in2="BackgroundImageFix" result="effect1_dropShadow_15_6083"/>
<feBlend mode="normal" in="SourceGraphic" in2="effect1_dropShadow_15_6083" result="shape"/>
</filter>
<linearGradient id="paint0_linear_15_6083" x1="197.78" y1="178.584" x2="197.78" y2="248" gradientUnits="userSpaceOnUse">
<stop stop-color="#8A42FF" stop-opacity="0"/>
<stop offset="1" stop-color="#8A42FF"/>
</linearGradient>
<linearGradient id="paint1_linear_15_6083" x1="197.5" y1="189.898" x2="197.5" y2="248" gradientUnits="userSpaceOnUse">
<stop stop-color="#8A42FF" stop-opacity="0"/>
<stop offset="1" stop-color="#8A42FF"/>
</linearGradient>
<radialGradient id="paint2_radial_15_6083" cx="0" cy="0" r="1" gradientUnits="userSpaceOnUse" gradientTransform="translate(197 135) rotate(49.2635) scale(105.58 145.459)">
<stop stop-color="#8A42FF"/>
<stop offset="1" stop-color="#8A42FF" stop-opacity="0"/>
</radialGradient>
<radialGradient id="paint3_radial_15_6083" cx="0" cy="0" r="1" gradientUnits="userSpaceOnUse" gradientTransform="translate(197 135) rotate(49.2635) scale(83.1443 114.549)">
<stop stop-color="#8A42FF" stop-opacity="0"/>
<stop offset="1" stop-color="#8A42FF"/>
</radialGradient>
</defs>
</svg>
