<svg width="14" height="19" viewBox="0 0 14 19" fill="none" xmlns="http://www.w3.org/2000/svg">
<path d="M12 6.66668H11.1667V5.00001C11.1667 2.70001 9.30001 0.833344 7.00001 0.833344C4.70001 0.833344 2.83334 2.70001 2.83334 5.00001V6.66668H2.00001C1.08334 6.66668 0.333344 7.41668 0.333344 8.33334V16.6667C0.333344 17.5833 1.08334 18.3333 2.00001 18.3333H12C12.9167 18.3333 13.6667 17.5833 13.6667 16.6667V8.33334C13.6667 7.41668 12.9167 6.66668 12 6.66668ZM7.00001 14.1667C6.08334 14.1667 5.33334 13.4167 5.33334 12.5C5.33334 11.5833 6.08334 10.8333 7.00001 10.8333C7.91668 10.8333 8.66668 11.5833 8.66668 12.5C8.66668 13.4167 7.91668 14.1667 7.00001 14.1667ZM9.58334 6.66668H4.41668V5.00001C4.41668 3.57501 5.57501 2.41668 7.00001 2.41668C8.42501 2.41668 9.58334 3.57501 9.58334 5.00001V6.66668Z" fill="white"/>
</svg>
